<svg width="21" height="20" viewBox="0 0 21 20" fill="none" xmlns="http://www.w3.org/2000/svg">
<path d="M4.6665 12.4993H3.83317C3.39114 12.4993 2.96722 12.3238 2.65466 12.0112C2.3421 11.6986 2.1665 11.2747 2.1665 10.8327V3.33268C2.1665 2.89065 2.3421 2.46673 2.65466 2.15417C2.96722 1.84161 3.39114 1.66602 3.83317 1.66602H11.3332C11.7752 1.66602 12.1991 1.84161 12.5117 2.15417C12.8242 2.46673 12.9998 2.89065 12.9998 3.33268V4.16602M9.6665 7.49935H17.1665C18.087 7.49935 18.8332 8.24554 18.8332 9.16602V16.666C18.8332 17.5865 18.087 18.3327 17.1665 18.3327H9.6665C8.74603 18.3327 7.99984 17.5865 7.99984 16.666V9.16602C7.99984 8.24554 8.74603 7.49935 9.6665 7.49935Z" stroke="white" stroke-width="1.67" stroke-linecap="round" stroke-linejoin="round"/>
</svg>
