<svg width="170" height="12" viewBox="0 0 170 12" fill="none" xmlns="http://www.w3.org/2000/svg">
<g clip-path="url(#clip0_616_2879)">
<path d="M1.52087 6.00036L0 0.166016H2.70415L4.22503 5.99866C4.68146 7.71465 5.71145 9.16559 7.41834 9.16559H10.4928C12.1997 9.16559 13.2297 7.71465 13.6861 5.99866L15.207 0.166016H17.9111L16.3903 5.99866C15.579 9.09933 13.755 11.833 10.4928 11.833H7.41834C4.15785 11.833 2.34934 9.1503 1.52087 5.99866V6.00036Z" fill="white"/>
<path d="M25.7051 0H30.8085C34.069 0 36.706 2.63344 36.706 5.83265V11.8335H34.0018V9.16608H22.5118V11.8335H19.8076V5.83265C19.8076 2.58247 22.4429 0 25.7051 0ZM34.0018 6.50035V5.83435C34.0018 4.06739 32.5154 2.66742 30.8085 2.66742H25.7051C23.9982 2.66742 22.5118 4.06739 22.5118 5.83435V6.50035H34.0018Z" fill="white"/>
<path d="M39.7339 0.166016H42.438V9.16559H53.9281V11.833H39.7356V0.166016H39.7339Z" fill="white"/>
<path d="M55.8606 6.00085C55.8606 2.61815 58.5131 0 61.7736 0H72.7573V2.66742H61.7736C59.9995 2.66742 58.563 4.11666 58.563 6.00085C58.563 7.88503 60.0167 9.33428 61.7736 9.33428H72.7573V12.0017H61.7736C58.5131 12.0017 55.8606 9.38525 55.8606 6.00085Z" fill="white"/>
<path d="M75.6216 0.166016H92.5182V2.83344H78.3257V4.66665H87.4165V7.33407H78.3257V9.16729H92.5182V11.8347H75.6216V0.166016Z" fill="white"/>
<path d="M95.4412 0.166016H107.961C110.479 0.166016 112.338 2.54971 112.338 4.7499C112.338 6.58312 111.239 8.26682 109.415 9.00079L111.864 11.8347H108.316L106.153 9.3185H98.1436V11.8347H95.4395V0.166016H95.4412ZM107.691 6.64938C108.772 6.64938 109.634 5.81687 109.634 4.7499C109.634 3.7492 108.79 2.83344 107.691 2.83344H98.1436V6.64938H107.691Z" fill="white"/>
<path d="M121.561 2.83344H114.465V0.166016H131.361V2.83344H124.265V11.833H121.561V2.83344Z" fill="white"/>
<path d="M133.683 0.166016H146.203C148.722 0.166016 150.58 2.54971 150.58 4.7499C150.58 6.58312 149.481 8.26682 147.657 9.00079L150.106 11.8347H146.558L144.395 9.3185H136.386V11.8347H133.682V0.166016H133.683ZM145.933 6.64938C147.015 6.64938 147.876 5.81687 147.876 4.7499C147.876 3.7492 147.03 2.83344 145.933 2.83344H136.386V6.64938H145.933Z" fill="white"/>
<path d="M159.001 0H164.104C167.365 0 170.002 2.63344 170.002 5.83265V11.8335H167.297V9.16608H155.807V11.8335H153.103V5.83265C153.103 2.58247 155.739 0 159.001 0ZM167.296 6.50035V5.83435C167.296 4.06739 165.809 2.66742 164.102 2.66742H158.999C157.292 2.66742 155.806 4.06739 155.806 5.83435V6.50035H167.296Z" fill="white"/>
</g>
<defs>
<clipPath id="clip0_616_2879">
<rect width="170" height="12" fill="white"/>
</clipPath>
</defs>
</svg>
