<svg width="27" height="22" viewBox="0 0 27 22" fill="none" xmlns="http://www.w3.org/2000/svg">
<path d="M2.50008 0.666626H22.3334C22.9523 0.666626 23.5457 0.912458 23.9833 1.35004C24.4209 1.78763 24.6667 2.38112 24.6667 2.99996V5.33329H20.0001V2.99996H4.83342V17H15.3334V19.3333H2.50008C1.88124 19.3333 1.28775 19.0875 0.850166 18.6499C0.412581 18.2123 0.166748 17.6188 0.166748 17V2.99996C0.166748 2.38112 0.412581 1.78763 0.850166 1.35004C1.28775 0.912458 1.88124 0.666626 2.50008 0.666626ZM18.8334 7.66663H25.8334C26.1428 7.66663 26.4396 7.78954 26.6584 8.00833C26.8772 8.22713 27.0001 8.52387 27.0001 8.83329V20.5C27.0001 20.8094 26.8772 21.1061 26.6584 21.3249C26.4396 21.5437 26.1428 21.6666 25.8334 21.6666H18.8334C18.524 21.6666 18.2272 21.5437 18.0085 21.3249C17.7897 21.1061 17.6667 20.8094 17.6667 20.5V8.83329C17.6667 8.52387 17.7897 8.22713 18.0085 8.00833C18.2272 7.78954 18.524 7.66663 18.8334 7.66663ZM20.0001 9.99996V18.1666H24.6667V9.99996H20.0001Z" fill="#002E72"/>
</svg>
