<svg width="26" height="26" viewBox="0 0 26 26" fill="none" xmlns="http://www.w3.org/2000/svg">
<path d="M24.6668 13C24.6668 19.4434 19.4435 24.6667 13.0002 24.6667M24.6668 13C24.6668 6.55672 19.4435 1.33337 13.0002 1.33337M24.6668 13H1.3335M13.0002 24.6667C6.55684 24.6667 1.3335 19.4434 1.3335 13M13.0002 24.6667C15.9183 21.472 17.5767 17.326 17.6668 13C17.5767 8.67408 15.9183 4.52812 13.0002 1.33337M13.0002 24.6667C10.082 21.472 8.42362 17.326 8.3335 13C8.42362 8.67408 10.082 4.52812 13.0002 1.33337M1.3335 13C1.3335 6.55672 6.55684 1.33337 13.0002 1.33337" stroke="white" stroke-width="2.33333" stroke-linecap="round" stroke-linejoin="round"/>
</svg>
