<svg width="40" height="40" viewBox="0 0 40 40" fill="none" xmlns="http://www.w3.org/2000/svg">
<path d="M34.9827 18.8955C34.3012 18.5876 33.6112 18.2942 32.9163 18.0178C32.1946 17.7281 31.4694 17.4553 30.7368 17.2007C30.4793 17.8626 30.1926 18.533 29.8767 19.2071C29.5681 19.8666 29.2292 20.5297 28.8599 21.1929C27.1664 24.2285 25.0343 26.8677 22.5269 29.0365C22.4722 29.0838 22.4176 29.1311 22.3617 29.1771C23.0323 29.6354 23.7369 30.0536 24.4634 30.427C26.9963 28.1515 29.1575 25.4299 30.8923 22.3239C31.3212 21.5565 31.7111 20.7867 32.0647 20.0242C32.7656 20.303 33.4593 20.5976 34.1469 20.908C33.7047 21.896 33.2078 22.8925 32.6514 23.889C30.6348 27.5017 28.0933 30.6513 25.0951 33.2517C24.727 33.0808 24.3601 32.905 24.0139 32.7316C24.0078 32.728 24.0005 32.7256 23.9932 32.7219C22.9314 32.2152 21.9085 31.6211 20.944 30.9544C20.735 30.8101 20.5273 30.661 20.3232 30.5082C20.2175 30.4319 20.113 30.3543 20.0085 30.2779H20.0061C19.9903 30.2646 19.9733 30.2524 19.9551 30.2391C19.4436 29.8572 18.9419 29.456 18.456 29.0353C15.9497 26.8701 13.8201 24.2321 12.1242 21.1953C10.8717 18.9525 9.98362 16.7049 9.35555 14.6173C9.52806 14.5361 9.70178 14.4573 9.87672 14.3809C10.427 14.1396 10.9883 13.9178 11.5581 13.7165C12.1242 13.5141 12.7 13.3347 13.2795 13.1722C13.4095 13.1371 13.5395 13.1019 13.6695 13.0692C14.6049 12.8328 15.5549 12.6436 16.5134 12.5054C17.823 12.2993 19.1581 12.1927 20.4933 12.1927C21.8284 12.1927 23.0882 12.2933 24.3625 12.4873C24.4257 12.2775 24.4852 12.0678 24.5423 11.8556C24.6857 11.3186 24.8145 10.7755 24.9226 10.2275C23.4648 9.99232 21.9741 9.87109 20.4933 9.87109C17.6189 9.87109 14.7082 10.3281 12.0659 11.1792C12.0561 11.1828 12.0464 11.1852 12.0367 11.1889C10.9932 11.5065 9.96783 11.8872 8.97166 12.3224C8.6886 12.4473 8.40433 12.5758 8.1237 12.7115C7.62196 12.9516 7.12509 13.2062 6.63794 13.4777C6.6513 13.5529 6.66831 13.6353 6.68896 13.7226C6.85418 14.3724 7.04248 15.0367 7.25751 15.7156C7.92446 17.8408 8.84045 20.0848 10.093 22.3264C11.9213 25.6008 14.2234 28.4485 16.935 30.7919C17.4974 31.2793 18.0733 31.7375 18.6637 32.1703C18.7949 32.2673 18.9273 32.3643 19.0609 32.4601C19.2796 32.6177 19.5032 32.7728 19.734 32.9268C19.8214 32.985 19.9077 33.0444 19.9976 33.1026C20.0851 33.1608 20.175 33.2178 20.2661 33.2747C20.2794 33.2844 20.2928 33.2917 20.3062 33.299C20.339 33.3232 20.373 33.3438 20.4082 33.3657C20.4216 33.3754 20.4362 33.3838 20.4519 33.3923C20.4665 33.4008 20.4799 33.4093 20.4957 33.4178C21.0266 33.7536 21.5793 34.0761 22.1467 34.3816C22.4358 34.5392 22.7529 34.7004 23.0833 34.8629C23.8608 35.2496 24.7112 35.6387 25.4632 35.9685C26.101 35.4617 26.7631 34.9004 27.4349 34.2797C29.8755 32.0297 32.4607 29.0135 34.6887 25.0189C35.2706 23.9763 35.7894 22.9374 36.2498 21.9118C36.5559 21.2341 36.8366 20.5612 37.0941 19.8993C36.3992 19.549 35.697 19.2144 34.9876 18.898L34.9827 18.8955Z" fill="url(#paint0_linear_538_3576)"/>
<path d="M20.0012 0.5C12.3623 0.5 5.37448 2.60457 0 6.08753C0.0352305 6.79916 0.0947579 7.6502 0.19802 8.61641C0.883193 8.19089 1.61574 7.76173 2.41268 7.33015C2.41997 7.3253 2.42605 7.32288 2.43212 7.32045C7.43121 4.41091 13.6111 2.82157 20.0012 2.82157C26.3913 2.82157 32.5846 4.41455 37.5873 7.33015C37.4306 9.25409 37.116 11.4981 36.5292 13.9215C35.8452 13.6123 35.1564 13.319 34.4615 13.0426C34.8503 11.3987 35.0981 9.8663 35.2524 8.51337C30.9664 6.2815 25.7802 5.06192 20.492 5.06192C17.3808 5.06192 14.306 5.48744 11.4268 6.28999L11.4232 6.27787C11.3224 6.3106 11.224 6.34212 11.1243 6.37485C9.96659 6.71066 8.84286 7.1083 7.76165 7.56413C5.77052 8.33394 4.12562 9.10012 2.69696 9.86145C1.91703 10.2761 1.20391 10.6883 0.532102 11.1004C0.541821 11.1611 0.552755 11.2229 0.563688 11.2847C0.575837 11.3587 0.590415 11.4362 0.602563 11.5114C0.617141 11.5926 0.630505 11.6751 0.645083 11.7575C0.66695 11.8775 0.688817 11.9988 0.711899 12.12C0.725263 12.1915 0.737411 12.2606 0.751989 12.3321C0.78236 12.4946 0.815161 12.6583 0.849177 12.8231C0.856466 12.8571 0.86254 12.891 0.869829 12.925C0.912349 13.1311 0.956083 13.3384 1.00225 13.5481C1.75545 16.9668 3.05777 20.965 5.31981 25.0165C10.2995 33.9403 17.0674 37.9955 20.0049 39.4988C20.656 39.1654 21.4967 38.7047 22.4649 38.0949C21.7992 37.787 21.1286 37.4621 20.5637 37.1602C20.3778 37.0596 20.1932 36.959 20.0109 36.856C20.0085 36.8572 20.0061 36.8584 20.0036 36.8608C18.2421 35.8655 16.5474 34.6653 14.9487 33.2857C11.9322 30.678 9.37618 27.5163 7.35103 23.8867C5.09992 19.8557 3.8219 15.8236 3.11 12.2812C5.27729 11.0653 7.93537 9.85661 11.7524 8.61399C14.5223 7.81144 17.5035 7.38349 20.4944 7.38349C24.7877 7.38349 29.0652 8.25999 32.7194 9.87115C32.6016 10.6022 32.4534 11.389 32.2639 12.2158C32.1096 12.8947 31.9274 13.6014 31.716 14.33C32.4485 14.5895 33.1774 14.8671 33.899 15.1617C34.5903 15.4417 35.2767 15.7375 35.9558 16.0479C36.6677 16.3764 37.3747 16.7183 38.0733 17.0771C38.2992 16.3473 38.4985 15.6345 38.6734 14.9398C39.6125 11.2483 39.904 8.10361 40.0024 6.08632C34.6243 2.60457 27.6389 0.5 20.0012 0.5Z" fill="url(#paint1_linear_538_3576)"/>
<path d="M20.4908 33.4186C20.4908 33.4186 20.492 33.4186 20.492 33.4174C20.4629 33.4004 20.4337 33.3822 20.4058 33.3652C20.4337 33.3846 20.4629 33.4016 20.4896 33.4186H20.4908Z" fill="url(#paint2_linear_538_3576)"/>
<path d="M20.4896 24.6058C18.8313 23.031 17.399 21.1713 16.223 19.0644C15.646 18.0303 15.137 16.9416 14.6935 15.8045C14.5891 15.8275 14.4858 15.8542 14.3825 15.8796C13.735 16.0433 13.09 16.2336 12.4546 16.4494C12.9174 17.6666 13.4884 18.931 14.1906 20.1918C15.6727 22.848 17.5326 25.1514 19.7194 27.0414C19.9708 27.2596 20.2284 27.4729 20.492 27.6802C20.7532 27.4741 21.0095 27.2608 21.2598 27.045C23.4489 25.1526 25.3089 22.848 26.7922 20.1906C28.5282 17.0834 29.4551 13.9569 29.9496 11.5335C29.2425 11.2704 28.5124 11.0377 27.7665 10.834C27.6462 11.4317 27.5065 12.0245 27.3498 12.6088C27.1287 13.4247 26.8712 14.2345 26.576 15.0322C26.5614 15.0698 26.548 15.1074 26.5334 15.145C26.039 16.5221 25.4461 17.8314 24.7598 19.0619C23.585 21.1665 22.1515 23.0274 20.492 24.6058H20.4896Z" fill="url(#paint3_linear_538_3576)"/>
<defs>
<linearGradient id="paint0_linear_538_3576" x1="6.16172" y1="45.8561" x2="34.5363" y2="-6.43574" gradientUnits="userSpaceOnUse">
<stop stop-color="#FF7300"/>
<stop offset="0.18" stop-color="#F97C00"/>
<stop offset="0.47" stop-color="#EA9502"/>
<stop offset="0.55" stop-color="#E59E03"/>
<stop offset="0.87" stop-color="#E5C500"/>
<stop offset="0.99" stop-color="#BF6F00"/>
</linearGradient>
<linearGradient id="paint1_linear_538_3576" x1="1.68377" y1="43.4267" x2="30.0583" y2="-8.86636" gradientUnits="userSpaceOnUse">
<stop stop-color="#FF7300"/>
<stop offset="0.18" stop-color="#F97C00"/>
<stop offset="0.47" stop-color="#EA9502"/>
<stop offset="0.55" stop-color="#E59E03"/>
<stop offset="0.87" stop-color="#E5C500"/>
<stop offset="0.99" stop-color="#BF6F00"/>
</linearGradient>
<linearGradient id="paint2_linear_538_3576" x1="11.9469" y1="48.9956" x2="38.7658" y2="-0.429865" gradientUnits="userSpaceOnUse">
<stop stop-color="#FF7300"/>
<stop offset="0.18" stop-color="#F97C00"/>
<stop offset="0.47" stop-color="#EA9502"/>
<stop offset="0.55" stop-color="#E59E03"/>
<stop offset="0.87" stop-color="#E5C500"/>
<stop offset="0.99" stop-color="#BF6F00"/>
</linearGradient>
<linearGradient id="paint3_linear_538_3576" x1="4.97236" y1="45.209" x2="33.3469" y2="-7.0828" gradientUnits="userSpaceOnUse">
<stop stop-color="#FF7300"/>
<stop offset="0.18" stop-color="#F97C00"/>
<stop offset="0.47" stop-color="#EA9502"/>
<stop offset="0.55" stop-color="#E59E03"/>
<stop offset="0.87" stop-color="#E5C500"/>
<stop offset="0.99" stop-color="#BF6F00"/>
</linearGradient>
</defs>
</svg>
