<svg width="20" height="20" viewBox="0 0 20 20" fill="none" xmlns="http://www.w3.org/2000/svg">
<g clip-path="url(#clip0_214_3384)">
<path d="M10 20C15.5228 20 20 15.5228 20 10C20 4.47715 15.5228 0 10 0C4.47715 0 0 4.47715 0 10C0 15.5228 4.47715 20 10 20Z" fill="#F0F0F0"/>
<path d="M-0.000488281 10C-0.000488281 14.2997 2.71326 17.9651 6.52127 19.3781V0.62207C2.71326 2.03496 -0.000488281 5.70043 -0.000488281 10Z" fill="#6DA544"/>
<path d="M19.9998 10C19.9998 5.70043 17.286 2.03496 13.478 0.62207V19.3781C17.286 17.9651 19.9998 14.2997 19.9998 10Z" fill="#6DA544"/>
</g>
<defs>
<clipPath id="clip0_214_3384">
<rect width="20" height="20" fill="white"/>
</clipPath>
</defs>
</svg>
