<svg width="56" height="56" viewBox="0 0 56 56" fill="none" xmlns="http://www.w3.org/2000/svg">
<rect x="4" y="4" width="48" height="48" rx="24" fill="#D1FADF"/>
<rect x="4" y="4" width="48" height="48" rx="24" stroke="#ECFDF3" stroke-width="8"/>
<path d="M19 22H37V34H19V22ZM28 25C28.7956 25 29.5587 25.3161 30.1213 25.8787C30.6839 26.4413 31 27.2044 31 28C31 28.7956 30.6839 29.5587 30.1213 30.1213C29.5587 30.6839 28.7956 31 28 31C27.2044 31 26.4413 30.6839 25.8787 30.1213C25.3161 29.5587 25 28.7956 25 28C25 27.2044 25.3161 26.4413 25.8787 25.8787C26.4413 25.3161 27.2044 25 28 25ZM23 24C23 24.5304 22.7893 25.0391 22.4142 25.4142C22.0391 25.7893 21.5304 26 21 26V30C21.5304 30 22.0391 30.2107 22.4142 30.5858C22.7893 30.9609 23 31.4696 23 32H33C33 31.4696 33.2107 30.9609 33.5858 30.5858C33.9609 30.2107 34.4696 30 35 30V26C34.4696 26 33.9609 25.7893 33.5858 25.4142C33.2107 25.0391 33 24.5304 33 24H23Z" fill="#039855"/>
</svg>
