<svg width="309" height="308" viewBox="0 0 309 308" fill="none" xmlns="http://www.w3.org/2000/svg">
<g clip-path="url(#clip0_233_5262)">
<path d="M308.5 0H0.5V308H308.5V0Z" fill="white"/>
<path d="M24.8636 16H16.5V24.3636H24.8636V16Z" fill="black"/>
<path d="M33.2273 16H24.8636V24.3636H33.2273V16Z" fill="black"/>
<path d="M41.5909 16H33.2273V24.3636H41.5909V16Z" fill="black"/>
<path d="M49.9545 16H41.5909V24.3636H49.9545V16Z" fill="black"/>
<path d="M58.3182 16H49.9545V24.3636H58.3182V16Z" fill="black"/>
<path d="M66.6818 16H58.3182V24.3636H66.6818V16Z" fill="black"/>
<path d="M75.0455 16H66.6818V24.3636H75.0455V16Z" fill="black"/>
<path d="M91.7727 16H83.4091V24.3636H91.7727V16Z" fill="black"/>
<path d="M100.136 16H91.7727V24.3636H100.136V16Z" fill="black"/>
<path d="M133.591 16H125.227V24.3636H133.591V16Z" fill="black"/>
<path d="M141.955 16H133.591V24.3636H141.955V16Z" fill="black"/>
<path d="M150.318 16H141.955V24.3636H150.318V16Z" fill="black"/>
<path d="M183.773 16H175.409V24.3636H183.773V16Z" fill="black"/>
<path d="M200.5 16H192.136V24.3636H200.5V16Z" fill="black"/>
<path d="M208.864 16H200.5V24.3636H208.864V16Z" fill="black"/>
<path d="M217.227 16H208.864V24.3636H217.227V16Z" fill="black"/>
<path d="M225.591 16H217.227V24.3636H225.591V16Z" fill="black"/>
<path d="M242.318 16H233.955V24.3636H242.318V16Z" fill="black"/>
<path d="M250.682 16H242.318V24.3636H250.682V16Z" fill="black"/>
<path d="M259.045 16H250.682V24.3636H259.045V16Z" fill="black"/>
<path d="M267.409 16H259.045V24.3636H267.409V16Z" fill="black"/>
<path d="M275.773 16H267.409V24.3636H275.773V16Z" fill="black"/>
<path d="M284.136 16H275.773V24.3636H284.136V16Z" fill="black"/>
<path d="M292.5 16H284.136V24.3636H292.5V16Z" fill="black"/>
<path d="M24.8636 24.3636H16.5V32.7273H24.8636V24.3636Z" fill="black"/>
<path d="M75.0455 24.3636H66.6818V32.7273H75.0455V24.3636Z" fill="black"/>
<path d="M116.864 24.3636H108.5V32.7273H116.864V24.3636Z" fill="black"/>
<path d="M125.227 24.3636H116.864V32.7273H125.227V24.3636Z" fill="black"/>
<path d="M150.318 24.3636H141.955V32.7273H150.318V24.3636Z" fill="black"/>
<path d="M167.045 24.3636H158.682V32.7273H167.045V24.3636Z" fill="black"/>
<path d="M183.773 24.3636H175.409V32.7273H183.773V24.3636Z" fill="black"/>
<path d="M192.136 24.3636H183.773V32.7273H192.136V24.3636Z" fill="black"/>
<path d="M225.591 24.3636H217.227V32.7273H225.591V24.3636Z" fill="black"/>
<path d="M242.318 24.3636H233.955V32.7273H242.318V24.3636Z" fill="black"/>
<path d="M292.5 24.3636H284.136V32.7273H292.5V24.3636Z" fill="black"/>
<path d="M24.8636 32.7273H16.5V41.0909H24.8636V32.7273Z" fill="black"/>
<path d="M41.5909 32.7273H33.2273V41.0909H41.5909V32.7273Z" fill="black"/>
<path d="M49.9545 32.7273H41.5909V41.0909H49.9545V32.7273Z" fill="black"/>
<path d="M58.3182 32.7273H49.9545V41.0909H58.3182V32.7273Z" fill="black"/>
<path d="M75.0455 32.7273H66.6818V41.0909H75.0455V32.7273Z" fill="black"/>
<path d="M108.5 32.7273H100.136V41.0909H108.5V32.7273Z" fill="black"/>
<path d="M116.864 32.7273H108.5V41.0909H116.864V32.7273Z" fill="black"/>
<path d="M125.227 32.7273H116.864V41.0909H125.227V32.7273Z" fill="black"/>
<path d="M183.773 32.7273H175.409V41.0909H183.773V32.7273Z" fill="black"/>
<path d="M192.136 32.7273H183.773V41.0909H192.136V32.7273Z" fill="black"/>
<path d="M200.5 32.7273H192.136V41.0909H200.5V32.7273Z" fill="black"/>
<path d="M217.227 32.7273H208.864V41.0909H217.227V32.7273Z" fill="black"/>
<path d="M242.318 32.7273H233.955V41.0909H242.318V32.7273Z" fill="black"/>
<path d="M259.045 32.7273H250.682V41.0909H259.045V32.7273Z" fill="black"/>
<path d="M267.409 32.7273H259.045V41.0909H267.409V32.7273Z" fill="black"/>
<path d="M275.773 32.7273H267.409V41.0909H275.773V32.7273Z" fill="black"/>
<path d="M292.5 32.7273H284.136V41.0909H292.5V32.7273Z" fill="black"/>
<path d="M24.8636 41.0909H16.5V49.4545H24.8636V41.0909Z" fill="black"/>
<path d="M41.5909 41.0909H33.2273V49.4545H41.5909V41.0909Z" fill="black"/>
<path d="M49.9545 41.0909H41.5909V49.4545H49.9545V41.0909Z" fill="black"/>
<path d="M58.3182 41.0909H49.9545V49.4545H58.3182V41.0909Z" fill="black"/>
<path d="M75.0455 41.0909H66.6818V49.4545H75.0455V41.0909Z" fill="black"/>
<path d="M91.7727 41.0909H83.4091V49.4545H91.7727V41.0909Z" fill="black"/>
<path d="M100.136 41.0909H91.7727V49.4545H100.136V41.0909Z" fill="black"/>
<path d="M108.5 41.0909H100.136V49.4545H108.5V41.0909Z" fill="black"/>
<path d="M158.682 41.0909H150.318V49.4545H158.682V41.0909Z" fill="black"/>
<path d="M175.409 41.0909H167.045V49.4545H175.409L175.409 41.0909Z" fill="black"/>
<path d="M183.773 41.0909H175.409L175.409 49.4545H183.773V41.0909Z" fill="black"/>
<path d="M200.5 41.0909H192.136V49.4545H200.5V41.0909Z" fill="black"/>
<path d="M242.318 41.0909H233.955V49.4545H242.318V41.0909Z" fill="black"/>
<path d="M259.045 41.0909H250.682V49.4545H259.045V41.0909Z" fill="black"/>
<path d="M267.409 41.0909H259.045V49.4545H267.409V41.0909Z" fill="black"/>
<path d="M275.773 41.0909H267.409V49.4545H275.773V41.0909Z" fill="black"/>
<path d="M292.5 41.0909H284.136V49.4545H292.5V41.0909Z" fill="black"/>
<path d="M24.8636 49.4545H16.5V57.8182H24.8636V49.4545Z" fill="black"/>
<path d="M41.5909 49.4545H33.2273V57.8182H41.5909V49.4545Z" fill="black"/>
<path d="M49.9545 49.4545H41.5909V57.8182H49.9545V49.4545Z" fill="black"/>
<path d="M58.3182 49.4545H49.9545V57.8182H58.3182V49.4545Z" fill="black"/>
<path d="M75.0455 49.4545H66.6818V57.8182H75.0455V49.4545Z" fill="black"/>
<path d="M91.7727 49.4545H83.4091V57.8182H91.7727V49.4545Z" fill="black"/>
<path d="M108.5 49.4545H100.136V57.8182H108.5V49.4545Z" fill="black"/>
<path d="M116.864 49.4545H108.5V57.8182H116.864V49.4545Z" fill="black"/>
<path d="M150.318 49.4545H141.955V57.8182H150.318V49.4545Z" fill="black"/>
<path d="M192.136 49.4545H183.773V57.8182H192.136V49.4545Z" fill="black"/>
<path d="M200.5 49.4545H192.136V57.8182H200.5V49.4545Z" fill="black"/>
<path d="M208.864 49.4545H200.5V57.8182H208.864V49.4545Z" fill="black"/>
<path d="M225.591 49.4545H217.227V57.8182H225.591V49.4545Z" fill="black"/>
<path d="M242.318 49.4545H233.955V57.8182H242.318V49.4545Z" fill="black"/>
<path d="M259.045 49.4545H250.682V57.8182H259.045V49.4545Z" fill="black"/>
<path d="M267.409 49.4545H259.045V57.8182H267.409V49.4545Z" fill="black"/>
<path d="M275.773 49.4545H267.409V57.8182H275.773V49.4545Z" fill="black"/>
<path d="M292.5 49.4545H284.136V57.8182H292.5V49.4545Z" fill="black"/>
<path d="M24.8636 57.8182H16.5V66.1818H24.8636V57.8182Z" fill="black"/>
<path d="M75.0455 57.8182H66.6818V66.1818H75.0455V57.8182Z" fill="black"/>
<path d="M91.7727 57.8182H83.4091V66.1818H91.7727V57.8182Z" fill="black"/>
<path d="M100.136 57.8182H91.7727V66.1818H100.136V57.8182Z" fill="black"/>
<path d="M108.5 57.8182H100.136V66.1818H108.5V57.8182Z" fill="black"/>
<path d="M116.864 57.8182H108.5V66.1818H116.864V57.8182Z" fill="black"/>
<path d="M125.227 57.8182H116.864V66.1818H125.227V57.8182Z" fill="black"/>
<path d="M133.591 57.8182H125.227V66.1818H133.591V57.8182Z" fill="black"/>
<path d="M150.318 57.8182H141.955V66.1818H150.318V57.8182Z" fill="black"/>
<path d="M175.409 57.8182H167.045V66.1818H175.409V57.8182Z" fill="black"/>
<path d="M192.136 57.8182H183.773V66.1818H192.136V57.8182Z" fill="black"/>
<path d="M217.227 57.8182H208.864V66.1818H217.227V57.8182Z" fill="black"/>
<path d="M242.318 57.8182H233.955V66.1818H242.318V57.8182Z" fill="black"/>
<path d="M292.5 57.8182H284.136V66.1818H292.5V57.8182Z" fill="black"/>
<path d="M24.8636 66.1818H16.5V74.5455H24.8636V66.1818Z" fill="black"/>
<path d="M33.2273 66.1818H24.8636V74.5455H33.2273V66.1818Z" fill="black"/>
<path d="M41.5909 66.1818H33.2273V74.5455H41.5909V66.1818Z" fill="black"/>
<path d="M49.9545 66.1818H41.5909V74.5455H49.9545V66.1818Z" fill="black"/>
<path d="M58.3182 66.1818H49.9545V74.5455H58.3182V66.1818Z" fill="black"/>
<path d="M66.6818 66.1818H58.3182V74.5455H66.6818V66.1818Z" fill="black"/>
<path d="M75.0455 66.1818H66.6818V74.5455H75.0455V66.1818Z" fill="black"/>
<path d="M91.7727 66.1818H83.4091V74.5455H91.7727V66.1818Z" fill="black"/>
<path d="M108.5 66.1818H100.136V74.5455H108.5V66.1818Z" fill="black"/>
<path d="M125.227 66.1818H116.864V74.5455H125.227V66.1818Z" fill="black"/>
<path d="M141.955 66.1818H133.591V74.5455H141.955V66.1818Z" fill="black"/>
<path d="M158.682 66.1818H150.318V74.5455H158.682V66.1818Z" fill="black"/>
<path d="M175.409 66.1818H167.045V74.5455H175.409V66.1818Z" fill="black"/>
<path d="M192.136 66.1818H183.773V74.5455H192.136V66.1818Z" fill="black"/>
<path d="M208.864 66.1818H200.5V74.5455H208.864V66.1818Z" fill="black"/>
<path d="M225.591 66.1818H217.227V74.5455H225.591V66.1818Z" fill="black"/>
<path d="M242.318 66.1818H233.955V74.5455H242.318V66.1818Z" fill="black"/>
<path d="M250.682 66.1818H242.318V74.5455H250.682V66.1818Z" fill="black"/>
<path d="M259.045 66.1818H250.682V74.5455H259.045V66.1818Z" fill="black"/>
<path d="M267.409 66.1818H259.045V74.5455H267.409V66.1818Z" fill="black"/>
<path d="M275.773 66.1818H267.409V74.5455H275.773V66.1818Z" fill="black"/>
<path d="M284.136 66.1818H275.773V74.5455H284.136V66.1818Z" fill="black"/>
<path d="M292.5 66.1818H284.136V74.5455H292.5V66.1818Z" fill="black"/>
<path d="M91.7727 74.5455H83.4091V82.9091H91.7727V74.5455Z" fill="black"/>
<path d="M100.136 74.5455H91.7727V82.9091H100.136V74.5455Z" fill="black"/>
<path d="M116.864 74.5455H108.5V82.9091H116.864V74.5455Z" fill="black"/>
<path d="M141.955 74.5455H133.591V82.9091H141.955V74.5455Z" fill="black"/>
<path d="M150.318 74.5455H141.955V82.9091H150.318V74.5455Z" fill="black"/>
<path d="M158.682 74.5455H150.318V82.9091H158.682V74.5455Z" fill="black"/>
<path d="M183.773 74.5455H175.409L175.409 82.9091H183.773V74.5455Z" fill="black"/>
<path d="M200.5 74.5455H192.136V82.9091H200.5V74.5455Z" fill="black"/>
<path d="M217.227 74.5455H208.864V82.9091H217.227V74.5455Z" fill="black"/>
<path d="M225.591 74.5455H217.227V82.9091H225.591V74.5455Z" fill="black"/>
<path d="M24.8636 82.9091H16.5V91.2727H24.8636V82.9091Z" fill="black"/>
<path d="M33.2273 82.9091H24.8636V91.2727H33.2273V82.9091Z" fill="black"/>
<path d="M41.5909 82.9091H33.2273V91.2727H41.5909V82.9091Z" fill="black"/>
<path d="M58.3182 82.9091H49.9545V91.2727H58.3182V82.9091Z" fill="black"/>
<path d="M75.0455 82.9091H66.6818V91.2727H75.0455V82.9091Z" fill="black"/>
<path d="M91.7727 82.9091H83.4091V91.2727H91.7727V82.9091Z" fill="black"/>
<path d="M116.864 82.9091H108.5V91.2727H116.864V82.9091Z" fill="black"/>
<path d="M133.591 82.9091H125.227V91.2727H133.591V82.9091Z" fill="black"/>
<path d="M158.682 82.9091H150.318V91.2727H158.682V82.9091Z" fill="black"/>
<path d="M167.045 82.9091H158.682V91.2727H167.045V82.9091Z" fill="black"/>
<path d="M200.5 82.9091H192.136V91.2727H200.5V82.9091Z" fill="black"/>
<path d="M208.864 82.9091H200.5V91.2727H208.864V82.9091Z" fill="black"/>
<path d="M217.227 82.9091H208.864V91.2727H217.227V82.9091Z" fill="black"/>
<path d="M233.955 82.9091H225.591V91.2727H233.955V82.9091Z" fill="black"/>
<path d="M242.318 82.9091H233.955V91.2727H242.318V82.9091Z" fill="black"/>
<path d="M250.682 82.9091H242.318V91.2727H250.682V82.9091Z" fill="black"/>
<path d="M259.045 82.9091H250.682V91.2727H259.045V82.9091Z" fill="black"/>
<path d="M267.409 82.9091H259.045V91.2727H267.409V82.9091Z" fill="black"/>
<path d="M292.5 82.9091H284.136V91.2727H292.5V82.9091Z" fill="black"/>
<path d="M24.8636 91.2727H16.5V99.6364H24.8636V91.2727Z" fill="black"/>
<path d="M33.2273 91.2727H24.8636V99.6364H33.2273V91.2727Z" fill="black"/>
<path d="M41.5909 91.2727H33.2273V99.6364H41.5909V91.2727Z" fill="black"/>
<path d="M49.9545 91.2727H41.5909V99.6364H49.9545V91.2727Z" fill="black"/>
<path d="M66.6818 91.2727H58.3182V99.6364H66.6818V91.2727Z" fill="black"/>
<path d="M83.4091 91.2727H75.0455V99.6364H83.4091V91.2727Z" fill="black"/>
<path d="M100.136 91.2727H91.7727V99.6364H100.136V91.2727Z" fill="black"/>
<path d="M108.5 91.2727H100.136V99.6364H108.5V91.2727Z" fill="black"/>
<path d="M116.864 91.2727H108.5V99.6364H116.864V91.2727Z" fill="black"/>
<path d="M158.682 91.2727H150.318V99.6364H158.682V91.2727Z" fill="black"/>
<path d="M192.136 91.2727H183.773V99.6364H192.136V91.2727Z" fill="black"/>
<path d="M233.955 91.2727H225.591V99.6364H233.955V91.2727Z" fill="black"/>
<path d="M250.682 91.2727H242.318V99.6364H250.682V91.2727Z" fill="black"/>
<path d="M259.045 91.2727H250.682V99.6364H259.045V91.2727Z" fill="black"/>
<path d="M267.409 91.2727H259.045V99.6364H267.409V91.2727Z" fill="black"/>
<path d="M275.773 91.2727H267.409V99.6364H275.773V91.2727Z" fill="black"/>
<path d="M284.136 91.2727H275.773V99.6364H284.136V91.2727Z" fill="black"/>
<path d="M41.5909 99.6364H33.2273V108H41.5909V99.6364Z" fill="black"/>
<path d="M66.6818 99.6364H58.3182V108H66.6818V99.6364Z" fill="black"/>
<path d="M75.0455 99.6364H66.6818V108H75.0455V99.6364Z" fill="black"/>
<path d="M91.7727 99.6364H83.4091V108H91.7727V99.6364Z" fill="black"/>
<path d="M141.955 99.6364H133.591V108H141.955V99.6364Z" fill="black"/>
<path d="M150.318 99.6364H141.955V108H150.318V99.6364Z" fill="black"/>
<path d="M158.682 99.6364H150.318V108H158.682V99.6364Z" fill="black"/>
<path d="M167.045 99.6364H158.682V108H167.045V99.6364Z" fill="black"/>
<path d="M217.227 99.6364H208.864V108H217.227V99.6364Z" fill="black"/>
<path d="M225.591 99.6364H217.227V108H225.591V99.6364Z" fill="black"/>
<path d="M259.045 99.6364H250.682V108H259.045V99.6364Z" fill="black"/>
<path d="M267.409 99.6364H259.045V108H267.409V99.6364Z" fill="black"/>
<path d="M24.8636 108H16.5V116.364H24.8636V108Z" fill="black"/>
<path d="M49.9545 108H41.5909V116.364H49.9545V108Z" fill="black"/>
<path d="M91.7727 108H83.4091V116.364H91.7727V108Z" fill="black"/>
<path d="M100.136 108H91.7727V116.364H100.136V108Z" fill="black"/>
<path d="M108.5 108H100.136V116.364H108.5V108Z" fill="black"/>
<path d="M125.227 108H116.864V116.364H125.227V108Z" fill="black"/>
<path d="M150.318 108H141.955V116.364H150.318V108Z" fill="black"/>
<path d="M167.045 108H158.682V116.364H167.045V108Z" fill="black"/>
<path d="M192.136 108H183.773V116.364H192.136V108Z" fill="black"/>
<path d="M208.864 108H200.5V116.364H208.864V108Z" fill="black"/>
<path d="M242.318 108H233.955V116.364H242.318V108Z" fill="black"/>
<path d="M259.045 108H250.682V116.364H259.045V108Z" fill="black"/>
<path d="M267.409 108H259.045V116.364H267.409V108Z" fill="black"/>
<path d="M275.773 108H267.409V116.364H275.773V108Z" fill="black"/>
<path d="M75.0455 116.364H66.6818V124.727H75.0455V116.364Z" fill="black"/>
<path d="M91.7727 116.364H83.4091V124.727H91.7727V116.364Z" fill="black"/>
<path d="M100.136 116.364H91.7727V124.727H100.136V116.364Z" fill="black"/>
<path d="M108.5 116.364H100.136V124.727H108.5V116.364Z" fill="black"/>
<path d="M125.227 116.364H116.864V124.727H125.227V116.364Z" fill="black"/>
<path d="M141.955 116.364H133.591V124.727H141.955V116.364Z" fill="black"/>
<path d="M150.318 116.364H141.955V124.727H150.318V116.364Z" fill="black"/>
<path d="M175.409 116.364H167.045V124.727H175.409V116.364Z" fill="black"/>
<path d="M192.136 116.364H183.773V124.727H192.136V116.364Z" fill="black"/>
<path d="M208.864 116.364H200.5V124.727H208.864V116.364Z" fill="black"/>
<path d="M217.227 116.364H208.864V124.727H217.227V116.364Z" fill="black"/>
<path d="M225.591 116.364H217.227V124.727H225.591V116.364Z" fill="black"/>
<path d="M233.955 116.364H225.591V124.727H233.955V116.364Z" fill="black"/>
<path d="M242.318 116.364H233.955V124.727H242.318V116.364Z" fill="black"/>
<path d="M275.773 116.364H267.409V124.727H275.773V116.364Z" fill="black"/>
<path d="M24.8636 124.727H16.5V133.091H24.8636V124.727Z" fill="black"/>
<path d="M33.2273 124.727H24.8636V133.091H33.2273V124.727Z" fill="black"/>
<path d="M41.5909 124.727H33.2273V133.091H41.5909V124.727Z" fill="black"/>
<path d="M83.4091 124.727H75.0455V133.091H83.4091V124.727Z" fill="black"/>
<path d="M91.7727 124.727H83.4091V133.091H91.7727V124.727Z" fill="black"/>
<path d="M100.136 124.727H91.7727V133.091H100.136V124.727Z" fill="black"/>
<path d="M108.5 124.727H100.136V133.091H108.5V124.727Z" fill="black"/>
<path d="M116.864 124.727H108.5V133.091H116.864V124.727Z" fill="black"/>
<path d="M125.227 124.727H116.864V133.091H125.227V124.727Z" fill="black"/>
<path d="M167.045 124.727H158.682V133.091H167.045V124.727Z" fill="black"/>
<path d="M175.409 124.727H167.045V133.091H175.409V124.727Z" fill="black"/>
<path d="M183.773 124.727H175.409V133.091H183.773V124.727Z" fill="black"/>
<path d="M192.136 124.727H183.773V133.091H192.136V124.727Z" fill="black"/>
<path d="M217.227 124.727H208.864V133.091H217.227V124.727Z" fill="black"/>
<path d="M233.955 124.727H225.591V133.091H233.955V124.727Z" fill="black"/>
<path d="M250.682 124.727H242.318V133.091H250.682V124.727Z" fill="black"/>
<path d="M267.409 124.727H259.045V133.091H267.409V124.727Z" fill="black"/>
<path d="M284.136 124.727H275.773V133.091H284.136V124.727Z" fill="black"/>
<path d="M24.8636 133.091H16.5V141.455H24.8636V133.091Z" fill="black"/>
<path d="M33.2273 133.091H24.8636V141.455H33.2273V133.091Z" fill="black"/>
<path d="M41.5909 133.091H33.2273V141.455H41.5909V133.091Z" fill="black"/>
<path d="M49.9545 133.091H41.5909V141.455H49.9545V133.091Z" fill="black"/>
<path d="M66.6818 133.091H58.3182V141.455H66.6818V133.091Z" fill="black"/>
<path d="M75.0455 133.091H66.6818V141.455H75.0455V133.091Z" fill="black"/>
<path d="M91.7727 133.091H83.4091V141.455H91.7727V133.091Z" fill="black"/>
<path d="M133.591 133.091H125.227V141.455H133.591V133.091Z" fill="black"/>
<path d="M141.955 133.091H133.591V141.455H141.955V133.091Z" fill="black"/>
<path d="M167.045 133.091H158.682V141.455H167.045V133.091Z" fill="black"/>
<path d="M175.409 133.091H167.045V141.455H175.409V133.091Z" fill="black"/>
<path d="M192.136 133.091H183.773V141.455H192.136V133.091Z" fill="black"/>
<path d="M208.864 133.091H200.5V141.455H208.864V133.091Z" fill="black"/>
<path d="M225.591 133.091H217.227V141.455H225.591V133.091Z" fill="black"/>
<path d="M250.682 133.091H242.318V141.455H250.682V133.091Z" fill="black"/>
<path d="M259.045 133.091H250.682V141.455H259.045V133.091Z" fill="black"/>
<path d="M267.409 133.091H259.045V141.455H267.409V133.091Z" fill="black"/>
<path d="M284.136 133.091H275.773V141.455H284.136V133.091Z" fill="black"/>
<path d="M292.5 133.091H284.136V141.455H292.5V133.091Z" fill="black"/>
<path d="M24.8636 141.455H16.5V149.818H24.8636V141.455Z" fill="black"/>
<path d="M58.3182 141.455H49.9545V149.818H58.3182V141.455Z" fill="black"/>
<path d="M66.6818 141.455H58.3182V149.818H66.6818V141.455Z" fill="black"/>
<path d="M83.4091 141.455H75.0455V149.818H83.4091V141.455Z" fill="black"/>
<path d="M108.5 141.455H100.136V149.818H108.5V141.455Z" fill="black"/>
<path d="M116.864 141.455H108.5V149.818H116.864V141.455Z" fill="black"/>
<path d="M141.955 141.455H133.591V149.818H141.955V141.455Z" fill="black"/>
<path d="M158.682 141.455H150.318V149.818H158.682V141.455Z" fill="black"/>
<path d="M167.045 141.455H158.682V149.818H167.045V141.455Z" fill="black"/>
<path d="M175.409 141.455H167.045V149.818H175.409V141.455Z" fill="black"/>
<path d="M217.227 141.455H208.864V149.818H217.227V141.455Z" fill="black"/>
<path d="M233.955 141.455H225.591V149.818H233.955V141.455Z" fill="black"/>
<path d="M242.318 141.455H233.955V149.818H242.318V141.455Z" fill="black"/>
<path d="M250.682 141.455H242.318V149.818H250.682V141.455Z" fill="black"/>
<path d="M259.045 141.455H250.682V149.818H259.045V141.455Z" fill="black"/>
<path d="M275.773 141.455H267.409V149.818H275.773V141.455Z" fill="black"/>
<path d="M292.5 141.455H284.136V149.818H292.5V141.455Z" fill="black"/>
<path d="M33.2273 149.818H24.8636V158.182H33.2273V149.818Z" fill="black"/>
<path d="M41.5909 149.818H33.2273V158.182H41.5909V149.818Z" fill="black"/>
<path d="M49.9545 149.818H41.5909V158.182H49.9545V149.818Z" fill="black"/>
<path d="M58.3182 149.818H49.9545V158.182H58.3182V149.818Z" fill="black"/>
<path d="M66.6818 149.818H58.3182V158.182H66.6818V149.818Z" fill="black"/>
<path d="M75.0455 149.818H66.6818V158.182H75.0455V149.818Z" fill="black"/>
<path d="M83.4091 149.818H75.0455V158.182H83.4091V149.818Z" fill="black"/>
<path d="M91.7727 149.818H83.4091V158.182H91.7727V149.818Z" fill="black"/>
<path d="M108.5 149.818H100.136V158.182H108.5V149.818Z" fill="black"/>
<path d="M150.318 149.818H141.955V158.182H150.318V149.818Z" fill="black"/>
<path d="M167.045 149.818H158.682V158.182H167.045V149.818Z" fill="black"/>
<path d="M192.136 149.818H183.773V158.182H192.136V149.818Z" fill="black"/>
<path d="M233.955 149.818H225.591V158.182H233.955V149.818Z" fill="black"/>
<path d="M242.318 149.818H233.955V158.182H242.318V149.818Z" fill="black"/>
<path d="M259.045 149.818H250.682V158.182H259.045V149.818Z" fill="black"/>
<path d="M267.409 149.818H259.045V158.182H267.409V149.818Z" fill="black"/>
<path d="M292.5 149.818H284.136V158.182H292.5V149.818Z" fill="black"/>
<path d="M24.8636 158.182H16.5V166.545H24.8636V158.182Z" fill="black"/>
<path d="M58.3182 158.182H49.9545V166.545H58.3182V158.182Z" fill="black"/>
<path d="M91.7727 158.182H83.4091V166.545H91.7727V158.182Z" fill="black"/>
<path d="M100.136 158.182H91.7727V166.545H100.136V158.182Z" fill="black"/>
<path d="M125.227 158.182H116.864V166.545H125.227V158.182Z" fill="black"/>
<path d="M167.045 158.182H158.682V166.545H167.045V158.182Z" fill="black"/>
<path d="M175.409 158.182H167.045V166.545H175.409V158.182Z" fill="black"/>
<path d="M217.227 158.182H208.864V166.545H217.227V158.182Z" fill="black"/>
<path d="M233.955 158.182H225.591V166.545H233.955V158.182Z" fill="black"/>
<path d="M242.318 158.182H233.955V166.545H242.318V158.182Z" fill="black"/>
<path d="M250.682 158.182H242.318V166.545H250.682V158.182Z" fill="black"/>
<path d="M259.045 158.182H250.682V166.545H259.045V158.182Z" fill="black"/>
<path d="M275.773 158.182H267.409V166.545H275.773V158.182Z" fill="black"/>
<path d="M292.5 158.182H284.136V166.545H292.5V158.182Z" fill="black"/>
<path d="M33.2273 166.545H24.8636V174.909H33.2273V166.545Z" fill="black"/>
<path d="M49.9545 166.545H41.5909V174.909H49.9545V166.545Z" fill="black"/>
<path d="M75.0455 166.545H66.6818V174.909H75.0455V166.545Z" fill="black"/>
<path d="M83.4091 166.545H75.0455V174.909H83.4091V166.545Z" fill="black"/>
<path d="M100.136 166.545H91.7727V174.909H100.136V166.545Z" fill="black"/>
<path d="M116.864 166.545H108.5V174.909H116.864V166.545Z" fill="black"/>
<path d="M133.591 166.545H125.227V174.909H133.591V166.545Z" fill="black"/>
<path d="M175.409 166.545H167.045V174.909H175.409V166.545Z" fill="black"/>
<path d="M192.136 166.545H183.773V174.909H192.136V166.545Z" fill="black"/>
<path d="M208.864 166.545H200.5V174.909H208.864V166.545Z" fill="black"/>
<path d="M217.227 166.545H208.864V174.909H217.227V166.545Z" fill="black"/>
<path d="M233.955 166.545H225.591V174.909H233.955V166.545Z" fill="black"/>
<path d="M250.682 166.545H242.318V174.909H250.682V166.545Z" fill="black"/>
<path d="M267.409 166.545H259.045V174.909H267.409V166.545Z" fill="black"/>
<path d="M275.773 166.545H267.409V174.909H275.773V166.545Z" fill="black"/>
<path d="M33.2273 174.909H24.8636V183.273H33.2273V174.909Z" fill="black"/>
<path d="M49.9545 174.909H41.5909V183.273H49.9545V174.909Z" fill="black"/>
<path d="M66.6818 174.909L58.3182 174.909V183.273H66.6818V174.909Z" fill="black"/>
<path d="M100.136 174.909H91.7727V183.273H100.136V174.909Z" fill="black"/>
<path d="M116.864 174.909H108.5V183.273H116.864V174.909Z" fill="black"/>
<path d="M125.227 174.909H116.864V183.273H125.227V174.909Z" fill="black"/>
<path d="M133.591 174.909H125.227V183.273H133.591V174.909Z" fill="black"/>
<path d="M141.955 174.909L133.591 174.909V183.273H141.955V174.909Z" fill="black"/>
<path d="M167.045 174.909L158.682 174.909V183.273H167.045V174.909Z" fill="black"/>
<path d="M175.409 174.909H167.045V183.273H175.409V174.909Z" fill="black"/>
<path d="M192.136 174.909H183.773V183.273H192.136V174.909Z" fill="black"/>
<path d="M208.864 174.909H200.5V183.273H208.864V174.909Z" fill="black"/>
<path d="M217.227 174.909H208.864V183.273H217.227V174.909Z" fill="black"/>
<path d="M242.318 174.909H233.955V183.273H242.318V174.909Z" fill="black"/>
<path d="M250.682 174.909H242.318V183.273H250.682V174.909Z" fill="black"/>
<path d="M259.045 174.909H250.682V183.273H259.045V174.909Z" fill="black"/>
<path d="M275.773 174.909H267.409V183.273H275.773V174.909Z" fill="black"/>
<path d="M284.136 174.909L275.773 174.909V183.273H284.136V174.909Z" fill="black"/>
<path d="M292.5 174.909H284.136V183.273H292.5V174.909Z" fill="black"/>
<path d="M41.5909 183.273H33.2273V191.636H41.5909V183.273Z" fill="black"/>
<path d="M49.9545 183.273H41.5909V191.636H49.9545V183.273Z" fill="black"/>
<path d="M75.0455 183.273H66.6818V191.636H75.0455V183.273Z" fill="black"/>
<path d="M100.136 183.273H91.7727V191.636H100.136V183.273Z" fill="black"/>
<path d="M116.864 183.273H108.5V191.636H116.864V183.273Z" fill="black"/>
<path d="M133.591 183.273H125.227V191.636H133.591V183.273Z" fill="black"/>
<path d="M141.955 183.273H133.591V191.636H141.955V183.273Z" fill="black"/>
<path d="M150.318 183.273H141.955V191.636H150.318V183.273Z" fill="black"/>
<path d="M158.682 183.273H150.318V191.636H158.682V183.273Z" fill="black"/>
<path d="M167.045 183.273H158.682V191.636H167.045V183.273Z" fill="black"/>
<path d="M175.409 183.273H167.045V191.636H175.409V183.273Z" fill="black"/>
<path d="M183.773 183.273H175.409V191.636H183.773V183.273Z" fill="black"/>
<path d="M208.864 183.273H200.5V191.636H208.864V183.273Z" fill="black"/>
<path d="M217.227 183.273H208.864V191.636H217.227V183.273Z" fill="black"/>
<path d="M242.318 183.273H233.955V191.636H242.318V183.273Z" fill="black"/>
<path d="M284.136 183.273H275.773V191.636H284.136V183.273Z" fill="black"/>
<path d="M33.2273 191.636H24.8636V200H33.2273V191.636Z" fill="black"/>
<path d="M41.5909 191.636H33.2273V200H41.5909V191.636Z" fill="black"/>
<path d="M58.3182 191.636H49.9545V200H58.3182V191.636Z" fill="black"/>
<path d="M66.6818 191.636H58.3182V200H66.6818V191.636Z" fill="black"/>
<path d="M125.227 191.636H116.864V200H125.227V191.636Z" fill="black"/>
<path d="M133.591 191.636H125.227V200H133.591V191.636Z" fill="black"/>
<path d="M141.955 191.636H133.591V200H141.955V191.636Z" fill="black"/>
<path d="M192.136 191.636H183.773V200H192.136V191.636Z" fill="black"/>
<path d="M208.864 191.636H200.5V200H208.864V191.636Z" fill="black"/>
<path d="M233.955 191.636H225.591V200H233.955V191.636Z" fill="black"/>
<path d="M250.682 191.636H242.318V200H250.682V191.636Z" fill="black"/>
<path d="M259.045 191.636H250.682V200H259.045V191.636Z" fill="black"/>
<path d="M267.409 191.636H259.045V200H267.409V191.636Z" fill="black"/>
<path d="M33.2273 200H24.8636V208.364H33.2273V200Z" fill="black"/>
<path d="M41.5909 200H33.2273V208.364H41.5909V200Z" fill="black"/>
<path d="M75.0455 200H66.6818V208.364H75.0455V200Z" fill="black"/>
<path d="M100.136 200H91.7727V208.364H100.136V200Z" fill="black"/>
<path d="M108.5 200H100.136V208.364H108.5V200Z" fill="black"/>
<path d="M133.591 200H125.227V208.364H133.591V200Z" fill="black"/>
<path d="M141.955 200H133.591V208.364H141.955V200Z" fill="black"/>
<path d="M158.682 200H150.318V208.364H158.682V200Z" fill="black"/>
<path d="M167.045 200H158.682V208.364H167.045V200Z" fill="black"/>
<path d="M175.409 200H167.045V208.364H175.409V200Z" fill="black"/>
<path d="M192.136 200H183.773V208.364H192.136V200Z" fill="black"/>
<path d="M200.5 200H192.136V208.364H200.5V200Z" fill="black"/>
<path d="M225.591 200H217.227V208.364H225.591V200Z" fill="black"/>
<path d="M250.682 200H242.318V208.364H250.682V200Z" fill="black"/>
<path d="M259.045 200H250.682V208.364H259.045V200Z" fill="black"/>
<path d="M267.409 200H259.045V208.364H267.409V200Z" fill="black"/>
<path d="M49.9545 208.364H41.5909V216.727H49.9545V208.364Z" fill="black"/>
<path d="M58.3182 208.364H49.9545V216.727H58.3182V208.364Z" fill="black"/>
<path d="M66.6818 208.364H58.3182V216.727H66.6818V208.364Z" fill="black"/>
<path d="M91.7727 208.364H83.4091V216.727H91.7727V208.364Z" fill="black"/>
<path d="M100.136 208.364H91.7727V216.727H100.136V208.364Z" fill="black"/>
<path d="M108.5 208.364H100.136V216.727H108.5V208.364Z" fill="black"/>
<path d="M116.864 208.364H108.5V216.727H116.864V208.364Z" fill="black"/>
<path d="M125.227 208.364H116.864V216.727H125.227V208.364Z" fill="black"/>
<path d="M133.591 208.364H125.227V216.727H133.591V208.364Z" fill="black"/>
<path d="M150.318 208.364H141.955V216.727H150.318V208.364Z" fill="black"/>
<path d="M158.682 208.364H150.318V216.727H158.682V208.364Z" fill="black"/>
<path d="M175.409 208.364H167.045V216.727H175.409V208.364Z" fill="black"/>
<path d="M183.773 208.364H175.409V216.727H183.773V208.364Z" fill="black"/>
<path d="M200.5 208.364H192.136V216.727H200.5V208.364Z" fill="black"/>
<path d="M208.864 208.364H200.5V216.727H208.864V208.364Z" fill="black"/>
<path d="M225.591 208.364H217.227V216.727H225.591V208.364Z" fill="black"/>
<path d="M233.955 208.364H225.591V216.727H233.955V208.364Z" fill="black"/>
<path d="M242.318 208.364H233.955V216.727H242.318V208.364Z" fill="black"/>
<path d="M250.682 208.364H242.318V216.727H250.682V208.364Z" fill="black"/>
<path d="M259.045 208.364H250.682V216.727H259.045V208.364Z" fill="black"/>
<path d="M284.136 208.364H275.773V216.727H284.136V208.364Z" fill="black"/>
<path d="M41.5909 216.727H33.2273V225.091H41.5909V216.727Z" fill="black"/>
<path d="M49.9545 216.727H41.5909V225.091H49.9545V216.727Z" fill="black"/>
<path d="M75.0455 216.727H66.6818V225.091H75.0455V216.727Z" fill="black"/>
<path d="M91.7727 216.727H83.4091V225.091H91.7727V216.727Z" fill="black"/>
<path d="M108.5 216.727H100.136V225.091H108.5V216.727Z" fill="black"/>
<path d="M125.227 216.727H116.864V225.091H125.227V216.727Z" fill="black"/>
<path d="M133.591 216.727H125.227V225.091H133.591V216.727Z" fill="black"/>
<path d="M175.409 216.727H167.045V225.091H175.409V216.727Z" fill="black"/>
<path d="M183.773 216.727H175.409V225.091H183.773V216.727Z" fill="black"/>
<path d="M200.5 216.727H192.136V225.091H200.5V216.727Z" fill="black"/>
<path d="M208.864 216.727H200.5V225.091H208.864V216.727Z" fill="black"/>
<path d="M225.591 216.727H217.227V225.091H225.591V216.727Z" fill="black"/>
<path d="M233.955 216.727H225.591V225.091H233.955V216.727Z" fill="black"/>
<path d="M242.318 216.727H233.955V225.091H242.318V216.727Z" fill="black"/>
<path d="M250.682 216.727H242.318V225.091H250.682V216.727Z" fill="black"/>
<path d="M259.045 216.727H250.682V225.091H259.045V216.727Z" fill="black"/>
<path d="M267.409 216.727H259.045V225.091H267.409V216.727Z" fill="black"/>
<path d="M275.773 216.727H267.409V225.091H275.773V216.727Z" fill="black"/>
<path d="M292.5 216.727H284.136V225.091H292.5V216.727Z" fill="black"/>
<path d="M91.7727 225.091H83.4091V233.455H91.7727V225.091Z" fill="black"/>
<path d="M116.864 225.091H108.5V233.455H116.864V225.091Z" fill="black"/>
<path d="M125.227 225.091H116.864V233.455H125.227V225.091Z" fill="black"/>
<path d="M150.318 225.091H141.955V233.455H150.318V225.091Z" fill="black"/>
<path d="M158.682 225.091H150.318V233.455H158.682V225.091Z" fill="black"/>
<path d="M183.773 225.091H175.409L175.409 233.455H183.773V225.091Z" fill="black"/>
<path d="M192.136 225.091H183.773V233.455H192.136V225.091Z" fill="black"/>
<path d="M200.5 225.091H192.136V233.455H200.5V225.091Z" fill="black"/>
<path d="M217.227 225.091H208.864V233.455H217.227V225.091Z" fill="black"/>
<path d="M225.591 225.091H217.227V233.455H225.591V225.091Z" fill="black"/>
<path d="M259.045 225.091H250.682V233.455H259.045V225.091Z" fill="black"/>
<path d="M267.409 225.091H259.045V233.455H267.409V225.091Z" fill="black"/>
<path d="M275.773 225.091H267.409V233.455H275.773V225.091Z" fill="black"/>
<path d="M24.8636 233.455H16.5V241.818H24.8636V233.455Z" fill="black"/>
<path d="M33.2273 233.455H24.8636V241.818H33.2273V233.455Z" fill="black"/>
<path d="M41.5909 233.455H33.2273V241.818H41.5909V233.455Z" fill="black"/>
<path d="M49.9545 233.455H41.5909V241.818H49.9545V233.455Z" fill="black"/>
<path d="M58.3182 233.455H49.9545V241.818H58.3182V233.455Z" fill="black"/>
<path d="M66.6818 233.455H58.3182V241.818H66.6818V233.455Z" fill="black"/>
<path d="M75.0455 233.455H66.6818V241.818H75.0455V233.455Z" fill="black"/>
<path d="M108.5 233.455H100.136V241.818H108.5V233.455Z" fill="black"/>
<path d="M116.864 233.455H108.5V241.818H116.864V233.455Z" fill="black"/>
<path d="M125.227 233.455H116.864V241.818H125.227V233.455Z" fill="black"/>
<path d="M141.955 233.455H133.591V241.818H141.955V233.455Z" fill="black"/>
<path d="M158.682 233.455H150.318V241.818H158.682V233.455Z" fill="black"/>
<path d="M167.045 233.455H158.682V241.818H167.045V233.455Z" fill="black"/>
<path d="M175.409 233.455H167.045V241.818H175.409L175.409 233.455Z" fill="black"/>
<path d="M183.773 233.455H175.409L175.409 241.818H183.773V233.455Z" fill="black"/>
<path d="M208.864 233.455H200.5V241.818H208.864V233.455Z" fill="black"/>
<path d="M217.227 233.455H208.864V241.818H217.227V233.455Z" fill="black"/>
<path d="M225.591 233.455H217.227V241.818H225.591V233.455Z" fill="black"/>
<path d="M242.318 233.455H233.955V241.818H242.318V233.455Z" fill="black"/>
<path d="M259.045 233.455H250.682V241.818H259.045V233.455Z" fill="black"/>
<path d="M284.136 233.455H275.773V241.818H284.136V233.455Z" fill="black"/>
<path d="M24.8636 241.818H16.5V250.182H24.8636V241.818Z" fill="black"/>
<path d="M75.0455 241.818H66.6818V250.182H75.0455V241.818Z" fill="black"/>
<path d="M116.864 241.818H108.5V250.182H116.864V241.818Z" fill="black"/>
<path d="M141.955 241.818H133.591V250.182H141.955V241.818Z" fill="black"/>
<path d="M158.682 241.818H150.318V250.182H158.682V241.818Z" fill="black"/>
<path d="M175.409 241.818H167.045V250.182H175.409V241.818Z" fill="black"/>
<path d="M217.227 241.818H208.864V250.182H217.227V241.818Z" fill="black"/>
<path d="M225.591 241.818H217.227V250.182H225.591V241.818Z" fill="black"/>
<path d="M259.045 241.818H250.682V250.182H259.045V241.818Z" fill="black"/>
<path d="M267.409 241.818H259.045V250.182H267.409V241.818Z" fill="black"/>
<path d="M275.773 241.818H267.409V250.182H275.773V241.818Z" fill="black"/>
<path d="M284.136 241.818H275.773V250.182H284.136V241.818Z" fill="black"/>
<path d="M292.5 241.818H284.136V250.182H292.5V241.818Z" fill="black"/>
<path d="M24.8636 250.182H16.5V258.545H24.8636V250.182Z" fill="black"/>
<path d="M41.5909 250.182H33.2273V258.545H41.5909V250.182Z" fill="black"/>
<path d="M49.9545 250.182H41.5909V258.545H49.9545V250.182Z" fill="black"/>
<path d="M58.3182 250.182H49.9545V258.545H58.3182V250.182Z" fill="black"/>
<path d="M75.0455 250.182H66.6818V258.545H75.0455V250.182Z" fill="black"/>
<path d="M91.7727 250.182H83.4091V258.545H91.7727V250.182Z" fill="black"/>
<path d="M100.136 250.182H91.7727V258.545H100.136V250.182Z" fill="black"/>
<path d="M108.5 250.182H100.136V258.545H108.5V250.182Z" fill="black"/>
<path d="M150.318 250.182H141.955V258.545H150.318V250.182Z" fill="black"/>
<path d="M158.682 250.182H150.318V258.545H158.682V250.182Z" fill="black"/>
<path d="M167.045 250.182H158.682V258.545H167.045V250.182Z" fill="black"/>
<path d="M183.773 250.182H175.409L175.409 258.545H183.773V250.182Z" fill="black"/>
<path d="M200.5 250.182H192.136V258.545H200.5V250.182Z" fill="black"/>
<path d="M225.591 250.182H217.227V258.545H225.591V250.182Z" fill="black"/>
<path d="M233.955 250.182H225.591V258.545H233.955V250.182Z" fill="black"/>
<path d="M242.318 250.182H233.955V258.545H242.318V250.182Z" fill="black"/>
<path d="M250.682 250.182H242.318V258.545H250.682V250.182Z" fill="black"/>
<path d="M259.045 250.182H250.682V258.545H259.045V250.182Z" fill="black"/>
<path d="M275.773 250.182H267.409V258.545H275.773V250.182Z" fill="black"/>
<path d="M284.136 250.182H275.773V258.545H284.136V250.182Z" fill="black"/>
<path d="M292.5 250.182H284.136V258.545H292.5V250.182Z" fill="black"/>
<path d="M24.8636 258.545H16.5V266.909H24.8636V258.545Z" fill="black"/>
<path d="M41.5909 258.545H33.2273V266.909H41.5909V258.545Z" fill="black"/>
<path d="M49.9545 258.545H41.5909V266.909H49.9545V258.545Z" fill="black"/>
<path d="M58.3182 258.545H49.9545V266.909H58.3182V258.545Z" fill="black"/>
<path d="M75.0455 258.545H66.6818V266.909H75.0455V258.545Z" fill="black"/>
<path d="M100.136 258.545H91.7727V266.909H100.136V258.545Z" fill="black"/>
<path d="M108.5 258.545H100.136V266.909H108.5V258.545Z" fill="black"/>
<path d="M141.955 258.545H133.591V266.909H141.955V258.545Z" fill="black"/>
<path d="M150.318 258.545H141.955V266.909H150.318V258.545Z" fill="black"/>
<path d="M158.682 258.545H150.318V266.909H158.682V258.545Z" fill="black"/>
<path d="M175.409 258.545H167.045V266.909H175.409L175.409 258.545Z" fill="black"/>
<path d="M183.773 258.545H175.409L175.409 266.909H183.773V258.545Z" fill="black"/>
<path d="M192.136 258.545H183.773V266.909H192.136V258.545Z" fill="black"/>
<path d="M200.5 258.545H192.136V266.909H200.5V258.545Z" fill="black"/>
<path d="M208.864 258.545H200.5V266.909H208.864V258.545Z" fill="black"/>
<path d="M250.682 258.545H242.318V266.909H250.682V258.545Z" fill="black"/>
<path d="M267.409 258.545H259.045V266.909H267.409V258.545Z" fill="black"/>
<path d="M275.773 258.545H267.409V266.909H275.773V258.545Z" fill="black"/>
<path d="M24.8636 266.909H16.5V275.273H24.8636V266.909Z" fill="black"/>
<path d="M41.5909 266.909H33.2273V275.273H41.5909V266.909Z" fill="black"/>
<path d="M49.9545 266.909H41.5909V275.273H49.9545V266.909Z" fill="black"/>
<path d="M58.3182 266.909H49.9545V275.273H58.3182V266.909Z" fill="black"/>
<path d="M75.0455 266.909H66.6818V275.273H75.0455V266.909Z" fill="black"/>
<path d="M91.7727 266.909H83.4091V275.273H91.7727V266.909Z" fill="black"/>
<path d="M100.136 266.909H91.7727V275.273H100.136V266.909Z" fill="black"/>
<path d="M108.5 266.909H100.136V275.273H108.5V266.909Z" fill="black"/>
<path d="M116.864 266.909H108.5V275.273H116.864V266.909Z" fill="black"/>
<path d="M133.591 266.909H125.227V275.273H133.591V266.909Z" fill="black"/>
<path d="M141.955 266.909H133.591V275.273H141.955V266.909Z" fill="black"/>
<path d="M150.318 266.909H141.955V275.273H150.318V266.909Z" fill="black"/>
<path d="M158.682 266.909H150.318V275.273H158.682V266.909Z" fill="black"/>
<path d="M167.045 266.909H158.682V275.273H167.045V266.909Z" fill="black"/>
<path d="M175.409 266.909H167.045V275.273H175.409V266.909Z" fill="black"/>
<path d="M183.773 266.909H175.409V275.273H183.773V266.909Z" fill="black"/>
<path d="M200.5 266.909H192.136V275.273H200.5V266.909Z" fill="black"/>
<path d="M217.227 266.909H208.864V275.273H217.227V266.909Z" fill="black"/>
<path d="M225.591 266.909H217.227V275.273H225.591V266.909Z" fill="black"/>
<path d="M233.955 266.909H225.591V275.273H233.955V266.909Z" fill="black"/>
<path d="M242.318 266.909H233.955V275.273H242.318V266.909Z" fill="black"/>
<path d="M250.682 266.909H242.318V275.273H250.682V266.909Z" fill="black"/>
<path d="M267.409 266.909H259.045V275.273H267.409V266.909Z" fill="black"/>
<path d="M284.136 266.909H275.773V275.273H284.136V266.909Z" fill="black"/>
<path d="M24.8636 275.273H16.5V283.636H24.8636V275.273Z" fill="black"/>
<path d="M75.0455 275.273H66.6818V283.636H75.0455V275.273Z" fill="black"/>
<path d="M91.7727 275.273H83.4091V283.636H91.7727V275.273Z" fill="black"/>
<path d="M108.5 275.273H100.136V283.636H108.5V275.273Z" fill="black"/>
<path d="M116.864 275.273H108.5V283.636H116.864V275.273Z" fill="black"/>
<path d="M175.409 275.273H167.045V283.636H175.409V275.273Z" fill="black"/>
<path d="M183.773 275.273H175.409V283.636H183.773V275.273Z" fill="black"/>
<path d="M208.864 275.273H200.5V283.636H208.864V275.273Z" fill="black"/>
<path d="M217.227 275.273H208.864V283.636H217.227V275.273Z" fill="black"/>
<path d="M275.773 275.273H267.409V283.636H275.773V275.273Z" fill="black"/>
<path d="M284.136 275.273H275.773V283.636H284.136V275.273Z" fill="black"/>
<path d="M24.8636 283.636H16.5V292H24.8636V283.636Z" fill="black"/>
<path d="M33.2273 283.636H24.8636V292H33.2273V283.636Z" fill="black"/>
<path d="M41.5909 283.636H33.2273V292H41.5909V283.636Z" fill="black"/>
<path d="M49.9545 283.636H41.5909V292H49.9545V283.636Z" fill="black"/>
<path d="M58.3182 283.636H49.9545V292H58.3182V283.636Z" fill="black"/>
<path d="M66.6818 283.636H58.3182V292H66.6818V283.636Z" fill="black"/>
<path d="M75.0455 283.636H66.6818V292H75.0455V283.636Z" fill="black"/>
<path d="M91.7727 283.636H83.4091V292H91.7727V283.636Z" fill="black"/>
<path d="M100.136 283.636H91.7727V292H100.136V283.636Z" fill="black"/>
<path d="M108.5 283.636H100.136V292H108.5V283.636Z" fill="black"/>
<path d="M150.318 283.636H141.955V292H150.318V283.636Z" fill="black"/>
<path d="M167.045 283.636H158.682V292H167.045V283.636Z" fill="black"/>
<path d="M175.409 283.636H167.045V292H175.409V283.636Z" fill="black"/>
<path d="M183.773 283.636H175.409V292H183.773V283.636Z" fill="black"/>
<path d="M208.864 283.636H200.5V292H208.864V283.636Z" fill="black"/>
<path d="M217.227 283.636H208.864V292H217.227V283.636Z" fill="black"/>
<path d="M233.955 283.636H225.591V292H233.955V283.636Z" fill="black"/>
<path d="M259.045 283.636H250.682V292H259.045V283.636Z" fill="black"/>
<path d="M267.409 283.636H259.045V292H267.409V283.636Z" fill="black"/>
<path d="M275.773 283.636H267.409V292H275.773V283.636Z" fill="black"/>
<path d="M284.136 283.636H275.773V292H284.136V283.636Z" fill="black"/>
</g>
<defs>
<clipPath id="clip0_233_5262">
<rect width="308" height="308" fill="white" transform="translate(0.5)"/>
</clipPath>
</defs>
</svg>
