<svg width="26" height="26" viewBox="0 0 26 26" fill="none" xmlns="http://www.w3.org/2000/svg">
<path d="M5.99992 6.00004H6.01159M5.99992 20H6.01159M3.66659 1.33337H22.3333C23.6219 1.33337 24.6666 2.37804 24.6666 3.66671V8.33337C24.6666 9.62204 23.6219 10.6667 22.3333 10.6667H3.66659C2.37792 10.6667 1.33325 9.62204 1.33325 8.33337V3.66671C1.33325 2.37804 2.37792 1.33337 3.66659 1.33337ZM3.66659 15.3334H22.3333C23.6219 15.3334 24.6666 16.378 24.6666 17.6667V22.3334C24.6666 23.622 23.6219 24.6667 22.3333 24.6667H3.66659C2.37792 24.6667 1.33325 23.622 1.33325 22.3334V17.6667C1.33325 16.378 2.37792 15.3334 3.66659 15.3334Z" stroke="#002E72" stroke-width="2.33333" stroke-linecap="round" stroke-linejoin="round"/>
</svg>
