<svg width="26" height="26" viewBox="0 0 26 26" fill="none" xmlns="http://www.w3.org/2000/svg">
<path d="M6.00016 6.00004H6.01183M6.00016 20H6.01183M3.66683 1.33337H22.3335C23.6222 1.33337 24.6668 2.37804 24.6668 3.66671V8.33337C24.6668 9.62204 23.6222 10.6667 22.3335 10.6667H3.66683C2.37816 10.6667 1.3335 9.62204 1.3335 8.33337V3.66671C1.3335 2.37804 2.37816 1.33337 3.66683 1.33337ZM3.66683 15.3334H22.3335C23.6222 15.3334 24.6668 16.378 24.6668 17.6667V22.3334C24.6668 23.622 23.6222 24.6667 22.3335 24.6667H3.66683C2.37816 24.6667 1.3335 23.622 1.3335 22.3334V17.6667C1.3335 16.378 2.37816 15.3334 3.66683 15.3334Z" stroke="white" stroke-width="2.33333" stroke-linecap="round" stroke-linejoin="round"/>
</svg>
